# xmcd CD database file
#
# Track frame offsets:
#	150
#	23210
#	40002
#	54737
#	69567
#	87730
#	107267
#	122945
#	135125
#	159240
#	186585
#	201520
#
# Disc length: 2898 seconds
#
# Revision: 0
# Processed by: cddbd v1.5.2PL0 Copyright (c) Steve Scherf et al.
# Submitted via: CDex 1.51
#
DISCID=a60b500c
DTITLE=Cordillera - Open Space
DYEAR=1995
DGENRE=New Age
TTITLE0=Open Space
TTITLE1=Spring Carol
TTITLE2=Tanager's Tango
TTITLE3=Winter's Complaint
TTITLE4=Words Can't Say
TTITLE5=County Line Road
TTITLE6=Moraine Dance
TTITLE7=Sarah's Blessing
TTITLE8=When Everything I Do Is Wrong
TTITLE9=Nimbus
TTITLE10=Spring Break!
TTITLE11=Katie's Dream
EXTD=YEAR: 1995
EXTT0=
EXTT1=
EXTT2=
EXTT3=
EXTT4=
EXTT5=
EXTT6=
EXTT7=
EXTT8=
EXTT9=
EXTT10=
EXTT11=
PLAYORDER=
